Coordinates
version=1
nRows=28
nColumns=38
inDegrees=no

Units are S.I. units (second, meters, Newtons, ...)
If the header above contains a line with 'inDegrees', this indicates whether rotational values are in degrees (yes) or radians (no).

endheader
time	pelvis_tilt	pelvis_list	pelvis_rotation	pelvis_tx	pelvis_ty	pelvis_tz	hip_flexion_r	hip_adduction_r	hip_rotation_r	knee_angle_r	ankle_angle_r	subtalar_angle_r	mtp_angle_r	hip_flexion_l	hip_adduction_l	hip_rotation_l	knee_angle_l	ankle_angle_l	subtalar_angle_l	mtp_angle_l	lumbar_extension	lumbar_bending	lumbar_rotation	arm_flex_r	arm_add_r	arm_rot_r	elbow_flex_r	pro_sup_r	wrist_flex_r	wrist_dev_r	arm_flex_l	arm_add_l	arm_rot_l	elbow_flex_l	pro_sup_l	wrist_flex_l	wrist_dev_l
0.17	-0.24223	0.0114831	0.00593073	1.02017	1.04291	-0.337821	-0.137447	-0.0285437	-0.148155	-0.604486	-0.0809367	0.1	0.00542556	0.971767	0.0406394	-0.0850578	-0.788193	0.27956	0.1	-0.0300777	0.0718794	0.0267504	0.187091	-0.214212	-0.389419	-0.00343054	2.38901	2.29911	-0.0212143	0.00244308	-1.0113	-0.267024	-0.261178	2.09154	1.76822	0.0715747	-0.00496239
0.18	-0.231628	0.0114924	0.0137867	1.02071	1.04496	-0.33802	-0.139531	-0.020169	-0.119967	-0.712011	-0.0756186	0.1	0.00542556	0.929718	0.0555841	-0.111289	-0.664165	0.309289	0.1	-0.0300777	0.0571578	0.0219037	0.184204	-0.23947	-0.387292	-0.0220853	2.37077	2.28908	-0.0212143	0.00244308	-1.01353	-0.259613	-0.283081	2.09984	1.76994	0.0715747	-0.00496239
0.19	-0.222608	0.0115181	0.0215228	1.02122	1.04587	-0.33829	-0.136391	-0.0142998	-0.0984106	-0.821409	-0.069972	0.1	0.00542556	0.890673	0.0686096	-0.138294	-0.560225	0.331989	0.1	-0.0300777	0.0451675	0.0173678	0.179421	-0.266144	-0.384922	-0.0436341	2.34421	2.27704	-0.0212143	0.00244308	-1.0129	-0.253423	-0.302553	2.10634	1.77145	0.0715747	-0.00496239
0.2	-0.215197	0.0115345	0.0291142	1.02176	1.04563	-0.338571	-0.128009	-0.0109742	-0.0834328	-0.932564	-0.0637539	0.1	0.00542556	0.854685	0.0797219	-0.165813	-0.476393	0.347502	0.1	-0.0300777	0.0359145	0.0131691	0.172752	-0.29414	-0.382359	-0.0679261	2.30934	2.26323	-0.0212143	0.00244308	-1.00942	-0.248426	-0.319596	2.11104	1.77276	0.0715747	-0.00496239
0.21	-0.209452	0.0114919	0.0364875	1.02231	1.04433	-0.338858	-0.114347	-0.0102851	-0.0748234	-1.04512	-0.0562967	0.1	0.00542556	0.821882	0.0889298	-0.193093	-0.412679	0.355512	0.1	-0.0300777	0.0294097	0.00934949	0.164223	-0.323168	-0.379746	-0.0945048	2.26626	2.2484	-0.0212143	0.00244308	-1.0031	-0.244547	-0.334198	2.11391	1.77398	0.0715747	-0.00496239
0.22	-0.205432	0.0113549	0.0435327	1.02283	1.04199	-0.339146	-0.0953431	-0.0123756	-0.0720695	-1.15845	-0.0465466	0.1	0.00542556	0.792458	0.096242	-0.218985	-0.369027	0.355784	0.1	-0.0300777	0.0256031	0.00592679	0.153868	-0.352688	-0.377307	-0.122548	2.21516	2.23392	-0.0212143	0.00244308	-0.993976	-0.241668	-0.34632	2.11486	1.77524	0.0715747	-0.00496239
0.23	-0.20316	0.0111618	0.0501385	1.02327	1.03863	-0.339434	-0.0708807	-0.0174116	-0.0742675	-1.27165	-0.0333387	0.1	0.00542556	0.766635	0.101749	-0.242028	-0.345202	0.348509	0.1	-0.0300777	0.0243235	0.00281735	0.141713	-0.381938	-0.375299	-0.150937	2.15641	2.22165	-0.0212143	0.00244308	-0.981975	-0.239662	-0.355879	2.11373	1.77671	0.0715747	-0.00496239
0.24	-0.202613	0.011081	0.0562335	1.02356	1.03428	-0.339723	-0.0407464	-0.0255429	-0.0801129	-1.38366	-0.0157811	0.1	0.00542556	0.744632	0.105731	-0.260663	-0.340684	0.334754	0.1	-0.0300777	0.0252379	-0.000235922	0.127756	-0.410041	-0.373933	-0.178438	2.09066	2.21344	-0.0212143	0.00244308	-0.966922	-0.238438	-0.362743	2.11031	1.77845	0.0715747	-0.00496239
0.25	-0.203721	0.0114429	0.0618102	1.02362	1.02896	-0.340004	-0.00460451	-0.0368567	-0.0879572	-1.49334	0.00642696	0.1	0.00542556	0.7266	0.108701	-0.273657	-0.35455	0.31688	0.1	-0.0300777	0.0278449	-0.00368923	0.111993	-0.436152	-0.373307	-0.203917	2.01899	2.21062	-0.0212143	0.00244308	-0.948469	-0.23798	-0.366749	2.10433	1.78049	0.0715747	-0.00496239
0.26	-0.206365	0.0127189	0.0669209	1.02334	1.0227	-0.340263	0.0379801	-0.0513095	-0.0959214	-1.59945	0.0328356	0.1	0.00542556	0.712515	0.111393	-0.280402	-0.385296	0.298703	0.1	-0.0300777	0.0315077	-0.00814332	0.0944694	-0.459637	-0.373374	-0.226556	1.943	2.21353	-0.0212143	0.00244308	-0.926095	-0.238365	-0.36773	2.09554	1.78278	0.0715747	-0.00496239
0.27	-0.210372	0.0154311	0.0716478	1.02263	1.01564	-0.340484	0.0874605	-0.0686415	-0.102068	-1.70061	0.062325	0.1	0.00542556	0.702011	0.114688	-0.280892	-0.430569	0.285126	0.1	-0.0300777	0.0355193	-0.0142027	0.0753442	-0.480239	-0.373943	-0.24599	1.86495	2.22143	-0.0212143	0.00244308	-0.899143	-0.239733	-0.365546	2.08381	1.78533	0.0715747	-0.00496239
0.28	-0.215396	0.019971	0.0760475	1.02142	1.00813	-0.340644	0.144181	-0.0882641	-0.104595	-1.7953	0.0933566	0.1	0.00542556	0.694222	0.119438	-0.275654	-0.486913	0.28116	0.1	-0.0300777	0.0392257	-0.022282	0.0549508	-0.498178	-0.374716	-0.262341	1.78767	2.23259	-0.0212143	0.00244308	-0.866935	-0.242215	-0.360121	2.06918	1.7883	0.0715747	-0.00496239
0.29	-0.221101	0.0264431	0.0800703	1.01966	1.00081	-0.340711	0.20817	-0.109135	-0.102036	-1.88173	0.124314	0.1	0.00542556	0.687621	0.126251	-0.265484	-0.549674	0.290476	0.1	-0.0300777	0.0420405	-0.0323795	0.0338105	-0.514165	-0.375361	-0.27612	1.71436	2.24463	-0.0212143	0.00244308	-0.828954	-0.245827	-0.351501	2.05204	1.79207	0.0715747	-0.00496239
0.3	-0.227086	0.0345598	0.0835273	1.01733	0.994256	-0.340675	0.278993	-0.129736	-0.0934384	-1.95792	0.153799	0.1	0.00542556	0.680102	0.135229	-0.251432	-0.613296	0.314225	0.1	-0.0300777	0.0435539	-0.0439566	0.0126223	-0.529302	-0.375603	-0.288028	1.64833	2.25485	-0.0212143	0.00244308	-0.785087	-0.250355	-0.339936	2.03323	1.79716	0.0715747	-0.00496239
0.31	-0.232899	0.0436175	0.0860581	1.01446	0.988742	-0.340545	0.35564	-0.1482	-0.078506	-2.02178	0.180806	0.1	0.00542556	0.669265	0.145826	-0.234876	-0.672028	0.350644	0.1	-0.0300777	0.0435951	-0.0559916	-0.00782606	-0.544866	-0.3753	-0.298704	1.5926	2.26058	-0.0212143	0.00244308	-0.735838	-0.255289	-0.325958	2.01416	1.80406	0.0715747	-0.00496239
0.32	-0.238131	0.0526286	0.0871915	1.01119	0.984355	-0.340345	0.436506	-0.162616	-0.0576943	-2.0713	0.204769	0.1	0.00542556	0.652823	0.156906	-0.217452	-0.720803	0.395545	0.1	-0.0300777	0.0422359	-0.067177	-0.0267909	-0.562054	-0.374483	-0.308517	1.54947	2.25953	-0.0212143	0.00244308	-0.682452	-0.259816	-0.310412	1.99676	1.81302	0.0715747	-0.00496239
0.33	-0.242433	0.060588	0.0864644	1.00771	0.981235	-0.340092	0.519464	-0.171381	-0.0322274	-2.1047	0.225465	0.1	0.00542556	0.62901	0.166968	-0.200911	-0.755974	0.443324	0.1	-0.0300777	0.0397792	-0.0761615	-0.0437377	-0.581743	-0.373324	-0.317486	1.52021	2.25021	-0.0212143	0.00244308	-0.626853	-0.262928	-0.294382	1.98336	1.82379	0.0715747	-0.00496239
0.34	-0.245508	0.0665276	0.0835674	1.00431	0.979586	-0.339776	0.602024	-0.173555	-0.00400761	-2.12069	0.242878	0.1	0.00542556	0.596828	0.174479	-0.186896	-0.775674	0.487964	0.1	-0.0300777	0.0366976	-0.0818585	-0.058447	-0.604356	-0.37205	-0.325369	1.50493	2.23218	-0.0212143	0.00244308	-0.571399	-0.263611	-0.278994	1.97628	1.83548	0.0715747	-0.00496239
0.35	-0.247142	0.0697354	0.0784842	1.0013	0.979552	-0.339398	0.681532	-0.16901	0.0245808	-2.11848	0.257042	0.1	0.00542556	0.55609	0.17814	-0.176714	-0.779772	0.523721	0.1	-0.0300777	0.0335327	-0.0835409	-0.071029	-0.629875	-0.370827	-0.331881	1.50266	2.20623	-0.0212143	0.00244308	-0.518505	-0.261065	-0.265141	1.97748	1.84665	0.0715747	-0.00496239
0.36	-0.247303	0.0697895	0.0715052	0.998898	0.981141	-0.338989	0.755396	-0.158424	0.0509769	-2.09789	0.267956	0.1	0.00542556	0.507301	0.177084	-0.171169	-0.769555	0.545584	0.1	-0.0300777	0.0307683	-0.0809001	-0.0818336	-0.657962	-0.369654	-0.336936	1.51158	2.17411	-0.0212143	0.00244308	-0.470242	-0.25489	-0.253241	1.98817	1.85551	0.0715747	-0.00496239
0.37	-0.246123	0.0666264	0.0631662	0.997271	0.984265	-0.338589	0.821337	-0.143139	0.0727966	-2.05925	0.275612	0.1	0.00542556	0.451516	0.170977	-0.170512	-0.747271	0.549607	0.1	-0.0300777	0.0288041	-0.0740312	-0.0912838	-0.688139	-0.368319	-0.340788	1.52941	2.13814	-0.0212143	0.00244308	-0.42806	-0.245184	-0.243124	2.00854	1.86036	0.0715747	-0.00496239
0.38	-0.24386	0.0605616	0.0541099	0.996509	0.988778	-0.338226	0.877626	-0.124935	0.0881758	-2.00338	0.280098	0.1	0.00542556	0.390199	0.160049	-0.174507	-0.715693	0.533273	0.1	-0.0300777	0.0279767	-0.0634293	-0.0997109	-0.719936	-0.366426	-0.344015	1.55377	2.10055	-0.0212143	0.00244308	-0.392697	-0.232531	-0.234099	2.03784	1.86003	0.0715747	-0.00496239
0.39	-0.240932	0.0522579	0.0449348	0.99664	0.994462	-0.337917	0.923238	-0.105785	0.0960245	-1.93143	0.281691	0.1	0.00542556	0.325111	0.145099	-0.182461	-0.6778	0.495819	0.1	-0.0300777	0.0285686	-0.049978	-0.107261	-0.752954	-0.363485	-0.347365	1.58243	2.0631	-0.0212143	0.00244308	-0.364267	-0.217894	-0.225171	2.07457	1.8542	0.0715747	-0.00496239
0.4	-0.237773	0.0426319	0.0361096	0.997613	1.00102	-0.337671	0.957921	-0.0875879	0.0961182	-1.84484	0.280888	0.1	0.00542556	0.258265	0.127434	-0.193239	-0.636582	0.438471	0.1	-0.0300777	0.0308552	-0.0349012	-0.113898	-0.786856	-0.359044	-0.351538	1.61353	2.02684	-0.0212143	0.00244308	-0.342448	-0.202462	-0.215293	2.11679	1.8435	0.0715747	-0.00496239
0.41	-0.234882	0.0328788	0.0279818	0.999311	1.0081	-0.337509	0.982088	-0.071917	0.0890138	-1.74525	0.278341	0.1	0.00542556	0.191835	0.108696	-0.205219	-0.59502	0.364506	0.1	-0.0300777	0.0350256	-0.0195592	-0.119474	-0.821285	-0.352797	-0.357016	1.64564	1.99215	-0.0212143	0.00244308	-0.326692	-0.187481	-0.203596	2.16248	1.82939	0.0715747	-0.00496239
0.42	-0.232719	0.0242033	0.0207811	1.00155	1.01533	-0.337446	0.996624	-0.0598621	0.075836	-1.63445	0.274714	0.1	0.00542556	0.128067	0.0906716	-0.216334	-0.55616	0.279093	0.1	-0.0300777	0.041109	-0.00530778	-0.123842	-0.855786	-0.344669	-0.363968	1.67777	1.95894	-0.0212143	0.00244308	-0.316386	-0.174112	-0.189525	2.20974	1.81386	0.0715747	-0.00496239
0.43	-0.231602	0.0176236	0.0146542	1.00412	1.02233	-0.337505	1.00265	-0.0519479	0.0579809	-1.51441	0.270484	0.1	0.00542556	0.0691493	0.0750386	-0.224218	-0.52318	0.188863	0.1	-0.0300777	0.0489042	0.00669905	-0.126924	-0.889751	-0.334834	-0.372271	1.70932	1.92705	-0.0212143	0.00244308	-0.31095	-0.16332	-0.172894	2.25688	1.79903	0.0715747	-0.00496239
0.44	-0.231606	0.0138112	0.0096802	1.0068	1.02875	-0.337718	1.0013	-0.0481216	0.0368192	-1.38728	0.265752	0.1	0.00542556	0.0170279	0.0631106	-0.226513	-0.499362	0.101151	0.1	-0.0300777	0.0579388	0.0156922	-0.128728	-0.922405	-0.323693	-0.381594	1.73997	1.89659	-0.0212143	0.00244308	-0.30988	-0.155799	-0.153869	2.30243	1.78676	0.0715747	-0.00496239
